<?xml version="1.0" encoding="UTF-8"?>
<svg xmlns="http://www.w3.org/2000/svg" viewBox="0 0 4.98 6.01">
  <defs>
    <style>
      .cls-1 {
        isolation: isolate;
      }

      .cls-2 {
        fill: #e6e6e6;
      }

      .cls-3 {
        fill: #613826;
      }

      .cls-4 {
        fill: #662d91;
        mix-blend-mode: multiply;
        opacity: .1;
      }

      .cls-5 {
        fill: #fff6d7;
      }

      .cls-6 {
        fill: #ffe992;
      }

      .cls-7 {
        fill: #86bb03;
      }

      .cls-8 {
        fill: #754c24;
      }

      .cls-9 {
        fill: #eb2d34;
      }
    </style>
  </defs>
  <g class="cls-1">
    <g id="apple">
      <path id="shadow" class="cls-2" d="m4.13,5.77c0,.13-.73.24-1.64.24s-1.64-.11-1.64-.24.73-.24,1.64-.24,1.64.11,1.64.24Z"/>
      <path id="leave" class="cls-7" d="m2.32.88c.25.43.17.95.17.95,0,0-.5-.17-.75-.59s-.17-.95-.17-.95c0,0,.5.17.75.59Z"/>
      <path id="leave_shadow" data-name="leave shadow" class="cls-4" d="m2.16,1.2s-.04-.03-.05-.04c-.02.09-.09.16-.21.16-.06,0-.11-.02-.14-.05.26.4.73.56.73.56,0,0,.04-.23-.01-.51-.11,0-.22-.05-.32-.12Z"/>
      <path id="stalk" class="cls-8" d="m2.98.15s-.03.05-.04.07c-.01.03-.02.05-.04.08-.02.05-.05.11-.07.16-.02.06-.04.11-.06.17-.02.06-.04.11-.05.17-.06.23-.11.47-.14.71,0,.12-.03.24-.03.37,0,.06,0,.12,0,.18v.18s0,.09,0,.09v.09s.02.18.02.18c0,.12.03.25.04.37-.03-.12-.06-.24-.08-.36l-.03-.18-.02-.09v-.09s-.03-.19-.03-.19c0-.06,0-.12-.01-.19-.01-.12,0-.25-.01-.38,0-.25.02-.5.06-.75,0-.06.02-.13.03-.19.01-.06.03-.12.04-.19.02-.06.03-.12.05-.19.01-.03.02-.06.03-.09.01-.03.02-.06.04-.1l.28.15Z"/>
      <g id="apple_colors" data-name="apple colors">
        <path id="color" class="cls-5" d="m3.35,5.78c-.15,0-.29-.07-.39-.19h0s0,0,0,0c-.02-.02-.24-.21-.46-.21s-.43.19-.46.21h0s0,0,0,0c-.1.12-.24.19-.39.19s-.29-.07-.39-.19h0S.08,4.27.08,2.84C.08,2.06.68,1.42,1.43,1.42c.38,0,.75.17,1,.47l.06.07.06-.07c.26-.3.62-.47,1-.47.74,0,1.35.63,1.35,1.41,0,1.43-1.15,2.73-1.16,2.74h0c-.1.13-.24.2-.39.2Z"/>
        <path id="apple_shadow" data-name="apple shadow" class="cls-4" d="m4.04,4.02c-.57.31-1.2.22-1.62-.25-.05.59-.59,1.13-1.18,1.13-.2,0-.38-.04-.55-.11.28.47.55.77.55.78h0c.1.13.24.2.39.2s.29-.07.39-.19h0s0,0,0,0c.02-.02.24-.21.46-.21s.43.19.46.21h0s0,0,0,0c.1.12.24.19.39.19s.29-.07.39-.19h0s1.07-1.21,1.16-2.58c-.14.43-.45.79-.86,1.02Z"/>
        <path id="contour" class="cls-9" d="m3.55,1.5c.7,0,1.27.6,1.27,1.34,0,1.4-1.13,2.67-1.14,2.69h0s0,0,0,0c-.08.1-.2.16-.33.16s-.25-.06-.33-.16h0s-.01-.02-.01-.02c-.03-.02-.27-.23-.51-.23s-.48.21-.51.23h-.01s0,.02,0,.02c-.08.1-.2.16-.33.16s-.25-.06-.33-.16h0s0,0,0,0c-.01-.01-1.14-1.29-1.14-2.69,0-.74.57-1.34,1.27-1.34.36,0,.7.16.94.44l.12.14.12-.14c.24-.28.58-.44.94-.44m0-.16c-.42,0-.8.19-1.06.5-.26-.31-.64-.5-1.06-.5-.79,0-1.43.67-1.43,1.49,0,1.48,1.18,2.79,1.18,2.79.11.14.27.22.45.22s.35-.09.45-.22c0,0,.21-.19.4-.19s.4.19.4.19c.11.14.27.22.45.22s.35-.09.45-.22c0,0,1.18-1.31,1.18-2.79,0-.83-.64-1.49-1.43-1.49h0Z"/>
      </g>
      <ellipse id="middle" class="cls-6" cx="2.51" cy="3.76" rx=".58" ry="1.15"/>
      <path id="seeds" class="cls-3" d="m2.95,3.44c.1-.02.22.17.26.34.04.17-.02.25-.12.28-.1.02-.19-.03-.23-.2-.04-.17-.01-.4.08-.42Zm-.89,0c-.1-.02-.22.17-.26.34-.04.17.02.25.12.28.1.02.19-.03.23-.2.04-.17.01-.4-.08-.42Z"/>
    </g>
  </g>
</svg>