<?xml version="1.0" encoding="UTF-8"?>
<svg id="kiwi" xmlns="http://www.w3.org/2000/svg" viewBox="0 0 5.29 5.55">
  <defs>
    <style>
      .cls-1 {
        fill: #739902;
      }

      .cls-2 {
        fill: #b9683d;
      }

      .cls-3 {
        fill: #e6e6e6;
      }

      .cls-4 {
        fill: #ffe992;
      }

      .cls-5 {
        fill: #fdf7d3;
      }

      .cls-6 {
        fill: #86bb03;
      }

      .cls-7 {
        fill: #1a1a1a;
      }

      /* Custom CSS */


    </style>
  </defs>
  <path id="shadow" class="cls-3" d="m4.49,5.28c0,.15-.83.27-1.85.27s-1.85-.12-1.85-.27.83-.27,1.85-.27,1.85.12,1.85.27Z"/>
  <g id="colors">
    <circle id="brown" class="cls-2" cx="2.64" cy="2.64" r="2.64"/>
    <circle id="green" class="cls-6" cx="2.64" cy="2.64" r="2.5"/>
    <circle id="dark_green" data-name="dark green" class="cls-1" cx="2.64" cy="2.64" r="1.68"/>
    <circle id="cream" class="cls-5" cx="2.64" cy="2.64" r="1.14"/>
    <circle id="dark_cream" data-name="dark cream" class="cls-4" cx="2.64" cy="2.64" r=".95"/>
  </g>
  <path id="seeds" class="cls-7" d="m2.72,1.18c0,.09-.03.16-.08.16s-.08-.07-.08-.16.03-.16.08-.16.08.07.08.16Zm-.43-.54s-.06.08-.05.17c.02.09.06.15.1.14.04,0,.06-.08.05-.17-.02-.09-.06-.15-.1-.14Zm-.2.48s-.05.09-.02.18.09.14.13.12c.04-.01.05-.09.02-.18-.03-.08-.09-.14-.13-.12Zm-.46-.24s-.03.1.01.18.11.12.15.1.03-.1-.01-.18-.11-.12-.15-.1Zm-.03.52s-.01.1.04.17c.06.07.13.1.16.07.03-.03.01-.1-.04-.17-.06-.07-.13-.1-.16-.07Zm-.51-.06s0,.11.07.16c.07.06.14.08.17.04.03-.03,0-.11-.07-.16-.07-.06-.14-.08-.17-.04Zm.15.5s.02.1.1.15.16.05.18.01c.02-.04-.02-.1-.1-.15s-.16-.05-.18-.01Zm-.51.12s.04.1.12.13.16.02.18-.02c.01-.04-.04-.1-.12-.13-.08-.03-.16-.02-.18.02Zm.31.41s.06.09.14.1c.09.02.16,0,.17-.05,0-.04-.06-.09-.14-.1-.09-.02-.16,0-.17.05Zm-.43.28s.07.08.16.08.16-.03.16-.08-.07-.08-.16-.08-.16.03-.16.08Zm.43.28s.08.06.17.05c.09-.02.15-.06.14-.1,0-.04-.08-.06-.17-.05-.09.02-.15.06-.14.1Zm-.31.41s.09.05.18.02c.08-.03.14-.09.12-.13-.01-.04-.09-.05-.18-.02s-.14.09-.12.13Zm.51.12s.1.03.18-.01.12-.11.1-.15c-.02-.04-.1-.03-.18.01-.08.04-.12.11-.1.15Zm-.15.5s.1.01.17-.04c.07-.06.1-.13.07-.16-.03-.03-.1-.01-.17.04-.07.06-.1.13-.07.16Zm.51-.06s.11,0,.16-.07c.06-.07.08-.14.04-.17-.03-.03-.11,0-.16.07-.06.07-.08.14-.04.17Zm.03.52s.1-.02.15-.1.05-.16.01-.18c-.04-.02-.1.02-.15.1s-.05.16-.01.18Zm.46-.24s.1-.04.13-.12c.03-.08.02-.16-.02-.18-.04-.01-.1.04-.13.12s-.02.16.02.18Zm.2.48s.09-.06.1-.14c.02-.09,0-.16-.05-.17-.04,0-.09.06-.1.14-.02.09,0,.16.05.17Zm.35-.38s.08-.07.08-.16-.03-.16-.08-.16-.08.07-.08.16.03.16.08.16Zm.35.38s.06-.08.05-.17c-.02-.09-.06-.15-.1-.14-.04,0-.06.08-.05.17.02.09.06.15.1.14Zm.2-.48s.05-.09.02-.18-.09-.14-.13-.12c-.04.01-.05.09-.02.18.03.08.09.14.13.12Zm.46.24s.03-.1-.01-.18-.11-.12-.15-.1c-.04.02-.03.1.01.18s.11.12.15.1Zm.03-.52s.01-.1-.04-.17c-.06-.07-.13-.1-.16-.07-.03.03-.01.1.04.17.06.07.13.1.16.07Zm.51.06s0-.11-.07-.16c-.07-.06-.14-.08-.17-.04s0,.11.07.16c.07.06.14.08.17.04Zm-.15-.5s-.02-.1-.1-.15c-.08-.04-.16-.05-.18-.01-.02.04.02.1.1.15s.16.05.18.01Zm.51-.12s-.04-.1-.12-.13c-.08-.03-.16-.02-.18.02-.01.04.04.1.12.13.08.03.16.02.18-.02Zm-.31-.41s-.06-.09-.14-.1c-.09-.02-.16,0-.17.05,0,.04.06.09.14.1.09.02.16,0,.17-.05Zm.43-.28s-.07-.08-.16-.08-.16.03-.16.08.07.08.16.08.16-.03.16-.08Zm-.43-.28s-.08-.06-.17-.05c-.09.02-.15.06-.14.1,0,.04.08.06.17.05.09-.02.15-.06.14-.1Zm.31-.41s-.09-.05-.18-.02c-.08.03-.14.09-.12.13.01.04.09.05.18.02.08-.03.14-.09.12-.13Zm-.51-.12s-.1-.03-.18.01-.12.11-.1.15c.02.04.1.03.18-.01s.12-.11.1-.15Zm.15-.5s-.1-.01-.17.04c-.07.06-.1.13-.07.16s.1.01.17-.04c.07-.06.1-.13.07-.16Zm-.51.06s-.11,0-.16.07c-.06.07-.08.14-.04.17.03.03.11,0,.16-.07.06-.07.08-.14.04-.17Zm-.03-.52s-.1.02-.15.1-.05.16-.01.18c.04.02.1-.02.15-.1s.05-.16.01-.18Zm-.46.24s-.1.04-.13.12c-.03.08-.02.16.02.18.04.01.1-.04.13-.12s.02-.16-.02-.18Zm-.2-.48s-.09.06-.1.14c-.02.09,0,.16.05.17.04,0,.09-.06.1-.14.02-.09,0-.16-.05-.17Z"/>
</svg>