<?xml version="1.0" encoding="UTF-8"?>
<svg id="orange" xmlns="http://www.w3.org/2000/svg" viewBox="0 0 4.87 5.1">
  <defs>
    <style>
      .cls-1 {
      fill: #fcc147;
      }

      .cls-2 {
      fill: #e6e6e6;
      }

      .cls-3 {
      fill: #fcb114;
      }

      .cls-4 {
      fill: #ffe992;
      }

      /* Custom CSS */

      #orange:hover #orange_segment{
      fill: #F27405;
      }

      #orange:hover #middle{
      fill: #F29F05;
      }

    </style>

    <script>
      const orange = document.querySelector("#orange");

      function logId(){
      console.log(this.id)
      }

      orange.addEventListener("click", logId)
    </script>
  </defs>
  <path id="shadow" class="cls-2"
    d="m4.04,4.86c0,.13-.72.24-1.61.24s-1.61-.11-1.61-.24.72-.24,1.61-.24,1.61.11,1.61.24Z" />
  <circle id="contour" class="cls-3" cx="2.43" cy="2.43" r="2.43" />
  <circle id="inside_contour" data-name="inside contour" class="cls-4" cx="2.43" cy="2.43" r="2.17" />
  <path id="orange_segment" data-name="orange segment" class="cls-3"
    d="m2.31.68v1.21c0,.14-.16.23-.28.16l-.67-.39-.37-.21c-.1-.06-.13-.19-.05-.28.29-.34.69-.58,1.15-.67.12-.02.22.07.22.19Zm1.63.48c-.29-.34-.69-.58-1.15-.67-.12-.02-.22.07-.22.19v1.21c0,.14.16.23.28.16l.67-.39.37-.21c.1-.06.13-.19.05-.28Zm.35.6c-.04-.11-.17-.16-.27-.1l-.37.21-.67.39c-.13.07-.13.25,0,.32l.67.39.37.21c.1.06.23.01.27-.1.08-.21.12-.43.12-.67s-.04-.46-.12-.67Zm-.4,1.65l-.37-.21-.68-.39c-.12-.07-.28.02-.28.16v1.21c0,.12.11.21.22.19.46-.08.86-.32,1.15-.67.08-.09.05-.23-.05-.28Zm-1.99-1.15l-.67-.39-.37-.21c-.1-.06-.23-.01-.27.1-.07.21-.12.43-.12.67s.04.46.12.67c.04.11.17.16.27.1l.37-.21.67-.39c.13-.07.13-.25,0-.32Zm.13.55l-.67.39-.37.21c-.1.06-.13.19-.05.28.29.34.69.58,1.15.67.12.02.22-.07.22-.19v-1.21c0-.14-.16-.23-.28-.16Z" />
  <path id="middle" class="cls-1"
    d="m2.31,1.11v.78c0,.14-.16.23-.28.16l-.67-.39s0-.09.03-.12c.2-.24.49-.41.81-.47.05,0,.09,0,.12.04Zm1.19.43c-.2-.24-.49-.41-.81-.47-.05,0-.09,0-.12.04v.78c0,.14.16.23.28.16l.67-.39s0-.09-.03-.12Zm.25.42s-.05-.07-.09-.08l-.67.39c-.13.07-.13.25,0,.32l.67.39s.08-.04.09-.08c.05-.15.08-.3.08-.47s-.03-.32-.08-.47Zm-.22,1.24l-.68-.39c-.12-.07-.28.02-.28.16v.78s.07.05.12.04c.32-.06.61-.23.81-.47.03-.04.04-.08.03-.12Zm-1.62-.94l-.67-.39s-.08.04-.09.08c-.05.15-.08.3-.08.47s.03.32.08.47c.02.04.05.07.09.08l.67-.39c.13-.07.13-.25,0-.32Zm.13.55l-.67.39s0,.09.03.12c.2.24.49.41.81.47.05,0,.09,0,.12-.04v-.78c0-.14-.16-.23-.28-.16Z" />
</svg>