<?xml version="1.0" encoding="UTF-8"?>
<svg id="strawberries" xmlns="http://www.w3.org/2000/svg" viewBox="0 0 2.46 2.16">
  <defs>
    <style>
      .cls-1 {
      fill: #739902;
      }

      .cls-2 {
      fill: #fd4553;
      }

      .cls-3 {
      fill: #e6e6e6;
      }

      .cls-4 {
      fill: #86bb03;
      }

      .cls-5 {
      fill: #ffcb9c;
      }

      .cls-6 {
      fill: #eb2d34;
      }

      /* Custom CSS */

      #strawberries:hover #seeds_first {
      fill: #804C3A;
      }

      #strawberries:hover #seeds_second {
      fill: #804C3A;
      }

      #strawberries:hover #color_first {
      fill: #E0A09F;
      }

      #strawberries:hover #color_second {
      fill: #D6908F;
      }

      #strawberries:hover #shadow_first {
      fill: #D6908F;
      }

    </style>

    <script>
      const badge = document.querySelector("#strawberries");

      function logId(){
      console.log(this.id)
      }

      badge.addEventListener("click", logId)
    </script>
  </defs>
  <path id="shadows" class="cls-3"
    d="m1.94,2.06c0,.06-.32.1-.71.1s-.71-.05-.71-.11.32-.1.71-.1.71.05.71.11Z" />
  <g id="first_strawberry" data-name="first strawberry">
    <path id="color_first" data-name="color first" class="cls-2"
      d="m.99,2.04c-.39.1-.88-.47-.97-.82-.03-.09-.03-.19,0-.28.02-.07.04-.14.09-.21.1-.15.26-.28.46-.33.2-.05.4-.03.56.06.07.04.13.08.18.14.06.07.11.15.13.25.09.35-.05,1.09-.44,1.2Z" />
    <path id="shadow_first" data-name="shadow first" class="cls-6"
      d="m1.12.46c-.11.13-.28.23-.47.28-.19.05-.38.04-.55,0,.1-.15.26-.28.46-.33.2-.05.4-.03.56.06Z" />
    <path id="big_leave_first" data-name="big leave first" class="cls-4"
      d="m.06.43c.14-.1.34-.04.34-.04C.41.39.25.33.25.12c0,0,.15-.03.29.22,0-.29.14-.33.14-.33.11.18,0,.32,0,.32,0,0,.14-.15.32-.13-.02.19-.24.21-.24.21.13,0,.19.1.19.1-.2.11-.38-.03-.38-.03,0,0-.09.21-.31.22,0,0,0-.12.12-.18,0,0-.19.1-.31-.06Z" />
    <path id="small_leave_first" data-name="small leave first" class="cls-1"
      d="m.48.41s.04.02.08,0c.04-.01.07-.03.07-.05,0-.02-.04-.02-.08,0-.04.01-.07.03-.07.05Z" />
    <path id="seeds_first" data-name="seeds first" class="cls-5"
      d="m.64.72s.07.02.09.07,0,.09-.04.1c-.04,0-.07-.02-.09-.07-.01-.05,0-.09.04-.1Zm.14.77s.05.08.09.07.05-.05.04-.1c-.01-.05-.05-.08-.09-.07s-.05.05-.04.1Zm.12-.42s.05.08.09.07c.04,0,.05-.05.04-.1-.01-.05-.05-.08-.09-.07s-.05.05-.04.1Zm.15-.3s.07.06.1.04.04-.07.02-.11c-.02-.04-.07-.06-.1-.04-.03.02-.04.07-.02.11Zm.12.43s.02.09.06.09c.04,0,.07-.03.07-.08,0-.05-.02-.09-.06-.09-.04,0-.07.03-.07.08Zm-.12.42s.02.09.06.09c.04,0,.07-.03.07-.08,0-.05-.02-.09-.06-.09-.04,0-.07.03-.07.08Zm-.22-.23s-.05.05-.04.1c.01.05.05.08.09.07s.05-.05.04-.1c-.01-.05-.05-.08-.09-.07Zm-.31-.31s-.05.05-.04.1c.01.05.05.08.09.07.04,0,.05-.05.04-.1-.01-.05-.05-.08-.09-.07Zm-.26-.2s-.07.04-.06.09.03.08.07.08c.04,0,.07-.04.06-.09,0-.05-.03-.08-.07-.08Zm.08.48s-.03.07,0,.11c.03.04.07.05.1.03.03-.02.03-.07,0-.11-.03-.04-.07-.05-.1-.03Zm.31.3s-.03.07,0,.11c.03.04.07.05.1.03.03-.02.03-.07,0-.11-.03-.04-.07-.05-.1-.03Z" />
  </g>
  <g id="second_strawberry" data-name="second strawberry">
    <path id="big_leave" data-name="big leave" class="cls-4"
      d="m2.46.89c-.09-.12-.26-.11-.26-.11,0,0,.14-.02.19-.18,0,0-.11-.06-.28.11.07-.23-.04-.3-.04-.3-.13.12-.08.25-.08.25,0,0-.07-.15-.22-.18-.03.16.14.22.14.22-.1-.03-.17.03-.17.03.14.13.31.06.31.06,0,0,.02.19.2.25,0,0,.03-.1-.05-.17,0,0,.13.12.26.02Z" />
    <path id="small_leave_second" data-name="small leave second" class="cls-1"
      d="m2.14.77s-.04,0-.07-.01c-.03-.02-.05-.04-.04-.05,0-.01.04,0,.07.01.03.02.05.04.04.05Z" />
    <path id="color_second" data-name="color second" class="cls-6"
      d="m2.31,1.52c-.15.26-.68.6-.96.43-.29-.17-.23-.8-.07-1.05.04-.07.1-.12.16-.17.18-.11.42-.11.63.01.21.13.32.35.31.55,0,.08-.03.15-.07.22Z" />
    <path id="seeds_second" data-name="seeds second" class="cls-5"
      d="m1.95,1.06s-.06.05-.08.03c-.03-.02-.03-.06-.01-.09.02-.03.06-.05.08-.03s.03.06.01.09Zm-.31.4s-.06,0-.08.03c-.02.03-.02.07.01.09.03.02.06,0,.08-.03s.02-.07-.01-.09Zm0-.36s-.06,0-.08.03c-.02.03-.02.07.01.09.03.02.06,0,.08-.03.02-.03.02-.07-.01-.09Zm-.03-.27s-.06-.02-.09.01c-.03.03-.03.07-.01.09s.06.02.09-.01c.03-.03.03-.07.01-.09Zm-.24.32s-.06.02-.07.06c0,.04,0,.07.04.08s.06-.02.07-.06c0-.04,0-.07-.04-.08Zm0,.36s-.06.02-.07.06c0,.04,0,.07.04.08.03,0,.06-.02.07-.06,0-.04,0-.07-.04-.08Zm.19-.01s-.02.07.01.09c.03.02.06,0,.08-.03s.02-.07-.01-.09-.06,0-.08.03Zm.32-.17s-.02.07.01.09.06,0,.08-.03c.02-.03.02-.07-.01-.09-.03-.02-.06,0-.08.03Zm.26-.08s0,.07.03.08c.03,0,.06-.01.07-.05s0-.07-.03-.08c-.03,0-.06.01-.07.05Zm-.19.31s-.04.06-.02.09c.02.02.06.02.09,0,.03-.02.04-.06.02-.09s-.06-.02-.09,0Zm-.32.17s-.04.06-.02.09c.02.02.06.02.09,0,.03-.02.04-.06.02-.09s-.06-.02-.09,0Z" />
  </g>
</svg>