<?xml version="1.0" encoding="UTF-8"?>
<svg id="watermelon" xmlns="http://www.w3.org/2000/svg" viewBox="0 0 5.22 5.43">
  <defs>
    <style>
      .cls-1 {
      fill: #739902;
      }

      .cls-2 {
      fill: #fd4553;
      }

      .cls-3 {
      fill: #e6e6e6;
      }

      .cls-4 {
      fill: #613826;
      }

      .cls-5 {
      fill: #ffe992;
      }

      /* Custom CSS */

      #watermelon:hover {
      transform: rotate(95deg);
      }

      #watermelon:hover #shadow{
      display: none;
      }
    </style>

    <script>
      const watermelon = document.querySelector("#watermelon");

      function logId(){
      console.log(this.id)
      }

      watermelon.addEventListener("click", logId)
    </script>
  </defs>
  <path id="shadow" class="cls-3"
    d="m4.18,5.2c0,.13-.7.23-1.57.23s-1.57-.1-1.57-.23.7-.23,1.57-.23,1.57.1,1.57.23Z" />
  <g id="colors">
    <path id="green" class="cls-1"
      d="m0,4.38c1.21,1.15,3.13,1.13,4.32-.06,1.19-1.19,1.21-3.1.06-4.32L0,4.38Z" />
    <path id="yellow" class="cls-5"
      d="m.19,4.18c1.11,1.04,2.85,1.02,3.93-.06s1.1-2.82.06-3.93L.19,4.18Z" />
    <path id="red" class="cls-2"
      d="m.35,4.03c1.02.96,2.62.94,3.62-.06,1-1,1.02-2.6.06-3.62L.35,4.03Z" />
  </g>
  <path id="seeds" class="cls-4"
    d="m2.55,2.42c.06.06.09.14.05.18-.04.04-.12.01-.18-.05-.06-.06-.09-.14-.05-.18.04-.04.12-.01.18.05Zm-.69.46s-.01.12.05.18.14.09.18.05c.04-.04.01-.12-.05-.18s-.14-.09-.18-.05Zm-.51.51s-.01.12.05.18c.06.06.14.09.18.05.04-.04.01-.12-.05-.18s-.14-.09-.18-.05Zm1.59-1.36c.06.06.14.09.18.05.04-.04.01-.12-.05-.18-.06-.06-.14-.09-.18-.05-.04.04-.01.12.05.18Zm.51-.51c.06.06.14.09.18.05.04-.04.01-.12-.05-.18s-.14-.09-.18-.05c-.04.04-.01.12.05.18Zm-.26,1.66s-.01.12.05.18c.06.06.14.09.18.05.04-.04.01-.12-.05-.18-.06-.06-.14-.09-.18-.05Zm-.51.51s-.01.12.05.18c.06.06.14.09.18.05.04-.04.01-.12-.05-.18-.06-.06-.14-.09-.18-.05Zm-.51.51s-.01.12.05.18c.06.06.14.09.18.05s.01-.12-.05-.18c-.06-.06-.14-.09-.18-.05Zm1.59-1.36c.06.06.14.09.18.05.04-.04.01-.12-.05-.18-.06-.06-.14-.09-.18-.05s-.01.12.05.18Zm.51-.51c.06.06.14.09.18.05.04-.04.01-.12-.05-.18-.06-.06-.14-.09-.18-.05-.04.04-.01.12.05.18Zm-1.73.69s-.01.12.05.18.14.09.18.05c.04-.04.01-.12-.05-.18-.06-.06-.14-.09-.18-.05Zm-.5.5s-.01.12.05.18.14.09.18.05c.04-.04.01-.12-.05-.18s-.14-.09-.18-.05Zm-.5.5s-.01.12.05.18c.06.06.14.09.18.05.04-.04.01-.12-.05-.18-.06-.06-.14-.09-.18-.05Zm1.55-1.32c.06.06.14.09.18.05.04-.04.01-.12-.05-.18-.06-.06-.14-.09-.18-.05-.04.04-.01.12.05.18Zm.5-.5c.06.06.14.09.18.05.04-.04.01-.12-.05-.18-.06-.06-.14-.09-.18-.05-.04.04-.01.12.05.18Zm.5-.5c.06.06.14.09.18.05.04-.04.01-.12-.05-.18s-.14-.09-.18-.05c-.04.04-.01.12.05.18Zm-.28,1.59s-.01.12.05.18.14.09.18.05c.04-.04.01-.12-.05-.18s-.14-.09-.18-.05Zm-.5.5s-.01.12.05.18c.06.06.14.09.18.05.04-.04.01-.12-.05-.18-.06-.06-.14-.09-.18-.05Z" />
</svg>